<?xml version="1.0" encoding="UTF-8" standalone="no"?>
<svg
   xmlns:dc="http://purl.org/dc/elements/1.1/"
   xmlns:cc="http://creativecommons.org/ns#"
   xmlns:rdf="http://www.w3.org/1999/02/22-rdf-syntax-ns#"
   xmlns:svg="http://www.w3.org/2000/svg"
   xmlns="http://www.w3.org/2000/svg"
   xmlns:sodipodi="http://sodipodi.sourceforge.net/DTD/sodipodi-0.dtd"
   xmlns:inkscape="http://www.inkscape.org/namespaces/inkscape"
   height="16"
   viewBox="0 0 16 16"
   width="16"
   version="1.1"
   id="svg80"
   sodipodi:docname="icon_icosphere_mesh.svg"
   inkscape:version="0.92.4 (f8dce91, 2019-08-02)">
  <metadata
     id="metadata86">
    <rdf:RDF>
      <cc:Work
         rdf:about="">
        <dc:format>image/svg+xml</dc:format>
        <dc:type
           rdf:resource="http://purl.org/dc/dcmitype/StillImage" />
        <dc:title></dc:title>
      </cc:Work>
    </rdf:RDF>
  </metadata>
  <defs
     id="defs84" />
  <sodipodi:namedview
     pagecolor="#ffffff"
     bordercolor="#666666"
     borderopacity="1"
     objecttolerance="10"
     gridtolerance="10"
     guidetolerance="10"
     inkscape:pageopacity="0"
     inkscape:pageshadow="2"
     inkscape:window-width="2560"
     inkscape:window-height="1372"
     id="namedview82"
     showgrid="false"
     inkscape:zoom="37.34375"
     inkscape:cx="3.9450543"
     inkscape:cy="7.1350724"
     inkscape:window-x="1920"
     inkscape:window-y="0"
     inkscape:window-maximized="1"
     inkscape:current-layer="svg80" />
  <path
     d="m8 1c-3.8541 0-7 3.1459-7 7 0 3.8542 3.1459 7 7 7s7-3.1458 7-7c0-3.8541-3.1459-7-7-7zm-1 2.0977v4.8711c-1.2931-.071342-2.6061-.29819-3.9434-.69141.30081-2.0978 1.8852-3.7665 3.9434-4.1797zm2 0c2.0549.41253 3.637 2.0767 3.9414 4.1699-1.3046.36677-2.6158.60259-3.9414.6875zm3.7852 6.2812c-.50864 1.7788-1.9499 3.1531-3.7852 3.5215v-2.9512c1.2792-.072301 2.5419-.26704 3.7852-.57031zm-9.5645.017578c1.2733.31892 2.5337.50215 3.7793.5625v2.9414c-1.8291-.36719-3.266-1.7339-3.7793-3.5039z"
     fill="#ffd684"
     id="path78" />
</svg>
